<svg width="643" height="492" viewBox="0 0 643 492" fill="none" xmlns="http://www.w3.org/2000/svg">
<g clip-path="url(#clip0)">
<rect x="88.6265" y="478" width="31" height="59" rx="15.5" transform="rotate(-90 88.6265 478)" fill="#2272CE"/>
<rect x="66.6265" y="427" width="30" height="81" rx="15" transform="rotate(-90 66.6265 427)" fill="#267CE0"/>
<rect x="50.6265" y="376" width="30" height="97" rx="15" transform="rotate(-90 50.6265 376)" fill="#2272CE"/>
<rect x="13.6265" y="326" width="31" height="134" rx="15.5" transform="rotate(-90 13.6265 326)" fill="#5EA8ED"/>
<rect y="274.936" width="30.4381" height="147.963" rx="15.2191" transform="rotate(-90 0 274.936)" fill="#267CE0"/>
<rect x="26.6265" y="224" width="30" height="121" rx="15" transform="rotate(-90 26.6265 224)" fill="#267CE0"/>
<rect x="44.6265" y="173" width="30" height="103" rx="15" transform="rotate(-90 44.6265 173)" fill="#2272CE"/>
<rect x="66.6265" y="123" width="31" height="81" rx="15.5" transform="rotate(-90 66.6265 123)" fill="#1A6AC5"/>
<rect x="88.6265" y="72" width="30" height="59" rx="15" transform="rotate(-90 88.6265 72)" fill="#2272CE"/>
<rect x="431" y="44" width="30" height="54" rx="15" transform="rotate(-90 431 44)" fill="#2FA35E"/>
<rect x="430.626" y="95" width="31" height="83" rx="15.5" transform="rotate(-90 430.626 95)" fill="#3BB86D"/>
<rect x="430.626" y="146" width="31" height="104" rx="15.5" transform="rotate(-90 430.626 146)" fill="#40C374"/>
<rect x="430.626" y="196.304" width="30.4381" height="136.972" rx="15.2191" transform="rotate(-90 430.626 196.304)" fill="#40C374"/>
<rect x="430.626" y="247" width="30" height="157" rx="15" transform="rotate(-90 430.626 247)" fill="#3BB86D"/>
<rect x="430.626" y="298" width="31" height="130" rx="15.5" transform="rotate(-90 430.626 298)" fill="#3BB86D"/>
<rect x="430.626" y="348" width="30" height="104" rx="15" transform="rotate(-90 430.626 348)" fill="#2FA35E"/>
<rect x="430.626" y="399" width="30" height="69" rx="15" transform="rotate(-90 430.626 399)" fill="#40C374"/>
<rect x="430.626" y="450" width="30" height="54" rx="15" transform="rotate(-90 430.626 450)" fill="#3BB86D"/>
<rect x="114.525" y="38.4783" width="71.8678" height="536.75" rx="35.9339" transform="rotate(-32.3713 114.525 38.4783)" fill="#4E6276"/>
<path d="M128.525 49.6089C128.525 29.7632 144.613 13.675 164.459 13.675V13.675C184.305 13.675 200.393 29.7632 200.393 49.6089V407.857C200.393 446.516 169.053 477.856 130.393 477.856H128.525V49.6089Z" fill="#4E6276"/>
<path d="M377.103 83.675C377.103 45.0151 408.443 13.675 447.103 13.675H448.971V441.923C448.971 461.768 432.883 477.856 413.037 477.856V477.856C393.191 477.856 377.103 461.768 377.103 441.923V83.675Z" fill="#4E6276"/>
<path d="M568.976 480.9C545.966 480.9 527.21 473.843 512.708 459.728C498.303 445.612 491.101 426.808 491.101 403.315V399.254C491.101 383.496 494.146 369.429 500.237 357.054C506.328 344.582 514.932 335.011 526.05 328.34C537.265 321.572 550.027 318.188 564.335 318.188C585.798 318.188 602.669 324.956 614.947 338.491C627.322 352.026 633.51 371.217 633.51 396.064V413.176H533.591C534.945 423.424 539.005 431.642 545.773 437.83C552.637 444.017 561.29 447.111 571.731 447.111C587.877 447.111 600.494 441.262 609.582 429.563L630.174 452.622C623.89 461.516 615.382 468.477 604.651 473.504C593.919 478.435 582.028 480.9 568.976 480.9ZM564.19 352.123C555.876 352.123 549.108 354.927 543.888 360.534C538.764 366.142 535.477 374.166 534.026 384.607H592.324V381.272C592.131 371.991 589.617 364.836 584.783 359.809C579.949 354.685 573.085 352.123 564.19 352.123Z" fill="#62768A"/>
</g>
<defs>
<clipPath id="clip0">
<rect width="643" height="492" fill="white"/>
</clipPath>
</defs>
</svg>
