<svg width="800" height="800" viewBox="0 0 800 800" fill="none" xmlns="http://www.w3.org/2000/svg">
<rect width="800" height="800" rx="261" fill="#343A43"/>
<rect x="167.626" y="626" width="31" height="59" rx="15.5" transform="rotate(-90 167.626 626)" fill="#2272CE"/>
<rect x="145.626" y="575" width="30" height="81" rx="15" transform="rotate(-90 145.626 575)" fill="#267CE0"/>
<rect x="129.626" y="524" width="30" height="97" rx="15" transform="rotate(-90 129.626 524)" fill="#2272CE"/>
<rect x="92.6265" y="474" width="31" height="134" rx="15.5" transform="rotate(-90 92.6265 474)" fill="#5EA8ED"/>
<rect x="79" y="422.936" width="30.4381" height="147.963" rx="15.2191" transform="rotate(-90 79 422.936)" fill="#267CE0"/>
<rect x="105.626" y="372" width="30" height="121" rx="15" transform="rotate(-90 105.626 372)" fill="#267CE0"/>
<rect x="123.626" y="321" width="30" height="103" rx="15" transform="rotate(-90 123.626 321)" fill="#2272CE"/>
<rect x="145.626" y="271" width="31" height="81" rx="15.5" transform="rotate(-90 145.626 271)" fill="#1A6AC5"/>
<rect x="167.626" y="220" width="30" height="59" rx="15" transform="rotate(-90 167.626 220)" fill="#2272CE"/>
<rect x="510" y="192" width="30" height="54" rx="15" transform="rotate(-90 510 192)" fill="#2FA35E"/>
<rect x="509.626" y="243" width="31" height="83" rx="15.5" transform="rotate(-90 509.626 243)" fill="#3BB86D"/>
<rect x="509.626" y="294" width="31" height="104" rx="15.5" transform="rotate(-90 509.626 294)" fill="#40C374"/>
<rect x="509.626" y="344.304" width="30.4381" height="136.972" rx="15.2191" transform="rotate(-90 509.626 344.304)" fill="#40C374"/>
<rect x="509.626" y="395" width="30" height="157" rx="15" transform="rotate(-90 509.626 395)" fill="#3BB86D"/>
<rect x="509.626" y="446" width="31" height="130" rx="15.5" transform="rotate(-90 509.626 446)" fill="#3BB86D"/>
<rect x="509.626" y="496" width="30" height="104" rx="15" transform="rotate(-90 509.626 496)" fill="#2FA35E"/>
<rect x="509.626" y="547" width="30" height="69" rx="15" transform="rotate(-90 509.626 547)" fill="#40C374"/>
<rect x="509.626" y="598" width="30" height="54" rx="15" transform="rotate(-90 509.626 598)" fill="#3BB86D"/>
<rect x="193.525" y="186.478" width="71.8678" height="536.75" rx="35.9339" transform="rotate(-32.3713 193.525 186.478)" fill="#4E6276"/>
<path d="M207.525 197.609C207.525 177.763 223.613 161.675 243.459 161.675V161.675C263.305 161.675 279.393 177.763 279.393 197.609V555.857C279.393 594.516 248.053 625.856 209.393 625.856H207.525V197.609Z" fill="#4E6276"/>
<path d="M456.103 231.675C456.103 193.015 487.443 161.675 526.103 161.675H527.971V589.923C527.971 609.768 511.883 625.856 492.037 625.856V625.856C472.191 625.856 456.103 609.768 456.103 589.923V231.675Z" fill="#4E6276"/>
<path d="M647.976 628.9C624.966 628.9 606.21 621.843 591.708 607.728C577.303 593.612 570.101 574.808 570.101 551.315V547.254C570.101 531.496 573.146 517.429 579.237 505.054C585.328 492.582 593.932 483.011 605.05 476.34C616.265 469.572 629.027 466.188 643.335 466.188C664.798 466.188 681.669 472.956 693.947 486.491C706.322 500.026 712.51 519.217 712.51 544.064V561.176H612.591C613.945 571.424 618.005 579.642 624.773 585.83C631.637 592.017 640.29 595.111 650.731 595.111C666.877 595.111 679.494 589.262 688.582 577.563L709.174 600.622C702.89 609.516 694.382 616.477 683.651 621.504C672.919 626.435 661.028 628.9 647.976 628.9ZM643.19 500.123C634.876 500.123 628.108 502.927 622.888 508.534C617.764 514.142 614.477 522.166 613.026 532.607H671.324V529.272C671.131 519.991 668.617 512.836 663.783 507.809C658.949 502.685 652.085 500.123 643.19 500.123Z" fill="#62768A"/>
</svg>
